<svg width="600" height="800" viewBox="0 0 600 800" xmlns="http://www.w3.org/2000/svg">
<rect x="0" y="0" width="600" height="800" fill="#FAF0E3"/>
<rect x="14" y="14" width="572" height="772" fill="none" stroke="#EFE1C9" stroke-width="2"/>
<circle cx="102.1" cy="152.7" r="4.4" fill="#A8451D" opacity="0.64"/>
<circle cx="178.3" cy="365.9" r="2.7" fill="#0E2A42" opacity="0.63"/>
<circle cx="67.7" cy="482.1" r="4.5" fill="#0E2A42" opacity="0.64"/>
<circle cx="111.6" cy="438.4" r="3.0" fill="#A8451D" opacity="0.42"/>
<circle cx="75.3" cy="170.8" r="4.5" fill="#0E2A42" opacity="0.54"/>
<circle cx="131.2" cy="475.2" r="4.2" fill="#0E2A42" opacity="0.56"/>
<circle cx="486.1" cy="323.3" r="3.4" fill="#0E2A42" opacity="0.7"/>
<circle cx="484.7" cy="626.3" r="5.1" fill="#A8451D" opacity="0.65"/>
<circle cx="69.5" cy="556.7" r="3.0" fill="#A8451D" opacity="0.56"/>
<circle cx="420.1" cy="310.7" r="3.7" fill="#A8451D" opacity="0.64"/>
<circle cx="519.2" cy="389.7" r="4.8" fill="#0E2A42" opacity="0.72"/>
<circle cx="485.1" cy="277.9" r="3.9" fill="#0E2A42" opacity="0.52"/>
<circle cx="182.3" cy="401.3" r="3.3" fill="#A8451D" opacity="0.41"/>
<circle cx="460.8" cy="157.5" r="4.1" fill="#0E2A42" opacity="0.49"/>

<path d="M300.0 90.0 L310.6 94.5 L321.0 99.0 L330.9 103.5 L340.0 108.0 L348.1 112.5 L355.0 117.0 L360.6 121.5 L364.7 126.0 L367.2 130.5 L368.0 135.0 L367.2 139.5 L364.7 144.0 L360.6 148.5 L355.0 153.0 L348.1 157.5 L340.0 162.0 L330.9 166.5 L321.0 171.0 L310.6 175.5 L300.0 180.0 L289.4 184.5 L279.0 189.0 L269.1 193.5 L260.0 198.0 L251.9 202.5 L245.0 207.0 L239.4 211.5 L235.3 216.0 L232.8 220.5 L232.0 225.0 L232.8 229.5 L235.3 234.0 L239.4 238.5 L245.0 243.0 L251.9 247.5 L260.0 252.0 L269.1 256.5 L279.0 261.0 L289.4 265.5 L300.0 270.0 L310.6 274.5 L321.0 279.0 L330.9 283.5 L340.0 288.0 L348.1 292.5 L355.0 297.0 L360.6 301.5 L364.7 306.0 L367.2 310.5 L368.0 315.0 L367.2 319.5 L364.7 324.0 L360.6 328.5 L355.0 333.0 L348.1 337.5 L340.0 342.0 L330.9 346.5 L321.0 351.0 L310.6 355.5 L300.0 360.0 L289.4 364.5 L279.0 369.0 L269.1 373.5 L260.0 378.0 L251.9 382.5 L245.0 387.0 L239.4 391.5 L235.3 396.0 L232.8 400.5 L232.0 405.0 L232.8 409.5 L235.3 414.0 L239.4 418.5 L245.0 423.0 L251.9 427.5 L260.0 432.0 L269.1 436.5 L279.0 441.0 L289.4 445.5 L300.0 450.0 L310.6 454.5 L321.0 459.0 L330.9 463.5 L340.0 468.0 L348.1 472.5 L355.0 477.0 L360.6 481.5 L364.7 486.0 L367.2 490.5 L368.0 495.0 L367.2 499.5 L364.7 504.0 L360.6 508.5 L355.0 513.0 L348.1 517.5 L340.0 522.0 L330.9 526.5 L321.0 531.0 L310.6 535.5 L300.0 540.0 L289.4 544.5 L279.0 549.0 L269.1 553.5 L260.0 558.0 L251.9 562.5 L245.0 567.0 L239.4 571.5 L235.3 576.0 L232.8 580.5 L232.0 585.0 L232.8 589.5 L235.3 594.0 L239.4 598.5 L245.0 603.0 L251.9 607.5 L260.0 612.0 L269.1 616.5 L279.0 621.0 L289.4 625.5 L300.0 630.0 L310.6 634.5 L321.0 639.0 L330.9 643.5 L340.0 648.0 L348.1 652.5 L355.0 657.0 L360.6 661.5 L364.7 666.0 L367.2 670.5 L368.0 675.0 L367.2 679.5 L364.7 684.0 L360.6 688.5 L355.0 693.0 L348.1 697.5 L340.0 702.0 L330.9 706.5 L321.0 711.0 L310.6 715.5 L300.0 720.0" fill="none" stroke="#0E2A42" stroke-width="5" stroke-linecap="round" stroke-linejoin="round"/>
<path d="M300.0 90.0 L289.4 94.5 L279.0 99.0 L269.1 103.5 L260.0 108.0 L251.9 112.5 L245.0 117.0 L239.4 121.5 L235.3 126.0 L232.8 130.5 L232.0 135.0 L232.8 139.5 L235.3 144.0 L239.4 148.5 L245.0 153.0 L251.9 157.5 L260.0 162.0 L269.1 166.5 L279.0 171.0 L289.4 175.5 L300.0 180.0 L310.6 184.5 L321.0 189.0 L330.9 193.5 L340.0 198.0 L348.1 202.5 L355.0 207.0 L360.6 211.5 L364.7 216.0 L367.2 220.5 L368.0 225.0 L367.2 229.5 L364.7 234.0 L360.6 238.5 L355.0 243.0 L348.1 247.5 L340.0 252.0 L330.9 256.5 L321.0 261.0 L310.6 265.5 L300.0 270.0 L289.4 274.5 L279.0 279.0 L269.1 283.5 L260.0 288.0 L251.9 292.5 L245.0 297.0 L239.4 301.5 L235.3 306.0 L232.8 310.5 L232.0 315.0 L232.8 319.5 L235.3 324.0 L239.4 328.5 L245.0 333.0 L251.9 337.5 L260.0 342.0 L269.1 346.5 L279.0 351.0 L289.4 355.5 L300.0 360.0 L310.6 364.5 L321.0 369.0 L330.9 373.5 L340.0 378.0 L348.1 382.5 L355.0 387.0 L360.6 391.5 L364.7 396.0 L367.2 400.5 L368.0 405.0 L367.2 409.5 L364.7 414.0 L360.6 418.5 L355.0 423.0 L348.1 427.5 L340.0 432.0 L330.9 436.5 L321.0 441.0 L310.6 445.5 L300.0 450.0 L289.4 454.5 L279.0 459.0 L269.1 463.5 L260.0 468.0 L251.9 472.5 L245.0 477.0 L239.4 481.5 L235.3 486.0 L232.8 490.5 L232.0 495.0 L232.8 499.5 L235.3 504.0 L239.4 508.5 L245.0 513.0 L251.9 517.5 L260.0 522.0 L269.1 526.5 L279.0 531.0 L289.4 535.5 L300.0 540.0 L310.6 544.5 L321.0 549.0 L330.9 553.5 L340.0 558.0 L348.1 562.5 L355.0 567.0 L360.6 571.5 L364.7 576.0 L367.2 580.5 L368.0 585.0 L367.2 589.5 L364.7 594.0 L360.6 598.5 L355.0 603.0 L348.1 607.5 L340.0 612.0 L330.9 616.5 L321.0 621.0 L310.6 625.5 L300.0 630.0 L289.4 634.5 L279.0 639.0 L269.1 643.5 L260.0 648.0 L251.9 652.5 L245.0 657.0 L239.4 661.5 L235.3 666.0 L232.8 670.5 L232.0 675.0 L232.8 679.5 L235.3 684.0 L239.4 688.5 L245.0 693.0 L251.9 697.5 L260.0 702.0 L269.1 706.5 L279.0 711.0 L289.4 715.5 L300.0 720.0" fill="none" stroke="#A8451D" stroke-width="5" stroke-linecap="round" stroke-linejoin="round"/>
<circle cx="300" cy="90.0" r="5" fill="#A8451D"/>
<circle cx="300" cy="180.0" r="5" fill="#A8451D"/>
<circle cx="300" cy="270.0" r="5" fill="#A8451D"/>
<circle cx="300" cy="360.0" r="5" fill="#A8451D"/>
<circle cx="300" cy="450.0" r="5" fill="#A8451D"/>
<circle cx="300" cy="540.0" r="5" fill="#A8451D"/>
<circle cx="300" cy="630.0" r="5" fill="#A8451D"/>
<circle cx="300" cy="720.0" r="5" fill="#A8451D"/>

</svg>